<svg id="Lag_2" data-name="Lag 2" xmlns="http://www.w3.org/2000/svg" width="189.39" height="124.16" viewBox="0 0 189.39 124.16">
  <title>overlay</title>
  <rect x="75.52" y="99.07" width="7.3" height="2.54" transform="translate(51.82 -24.51) rotate(25.92)" fill="#f7941d" stroke="#231f20" stroke-miterlimit="10" stroke-width="0.25"/>
  <rect x="101.22" y="62.05" width="4" height="3.64" transform="translate(11.67 -15.84) rotate(9.3)" fill="#f7941d" stroke="#231f20" stroke-miterlimit="10" stroke-width="0.25"/>
  <rect x="92.61" y="60.92" width="6.03" height="4.19" transform="matrix(0.99, 0.16, -0.16, 0.99, 11.44, -14.62)" fill="#f7941d" stroke="#231f20" stroke-miterlimit="10" stroke-width="0.25"/>
  <rect x="98.56" y="63.11" width="2.64" height="1.2" transform="translate(11.6 -15.3) rotate(9.3)" fill="#f7941d" stroke="#231f20" stroke-miterlimit="10" stroke-width="0.25"/>
  <rect x="82.58" y="59.05" width="4.46" height="3.95" transform="translate(13.58 -15.41) rotate(11.28)" fill="#f7941d" stroke="#231f20" stroke-miterlimit="10" stroke-width="0.25"/>
  <ellipse cx="108.26" cy="51.62" rx="2.3" ry="2.04" fill="#006838" stroke="#231f20" stroke-miterlimit="10" stroke-width="0.25"/>
  <circle cx="114.97" cy="46.49" r="1.91" fill="#006838" stroke="#231f20" stroke-miterlimit="10" stroke-width="0.25"/>
  <circle cx="105.72" cy="55.74" r="0.8" fill="#006838" stroke="#231f20" stroke-miterlimit="10" stroke-width="0.25"/>
  <circle cx="104.07" cy="59.01" r="0.85" fill="#006838" stroke="#231f20" stroke-miterlimit="10" stroke-width="0.25"/>
  <ellipse cx="103.75" cy="55.64" rx="0.87" ry="1.11" fill="#006838" stroke="#231f20" stroke-miterlimit="10" stroke-width="0.25"/>
  <circle cx="104.73" cy="51.56" r="0.98" fill="#006838" stroke="#231f20" stroke-miterlimit="10" stroke-width="0.25"/>
  <circle cx="120.83" cy="44.43" r="2.06" fill="#006838" stroke="#231f20" stroke-miterlimit="10" stroke-width="0.25"/>
</svg>
